<svg xmlns="http://www.w3.org/2000/svg" viewBox="0 0 587.7 597.96"><defs><style>.cls-1{fill:#afb6bb;}.cls-2{fill:#4398d1;}.cls-3{fill:#dadddf;}.cls-4{fill:#87ced9;}.cls-5{fill:#71c4d1;}.cls-6{fill:#5eb3d1;}.cls-7{fill:#e34b87;}.cls-8{fill:#bf3d75;}.cls-9{fill:#3e8cc7;}.cls-10{fill:#e7eced;}</style></defs><g id="Layer_2" data-name="Layer 2"><g id="Capa_1" data-name="Capa 1"><path class="cls-1" d="M338,492V474.37H249.71V492c0,39-13.93,70.63-53,70.63H391C351.92,562.65,338,531.06,338,492Z"/><g id="flat"><path class="cls-2" d="M30.4,81.06A30.4,30.4,0,0,0,0,111.46V425.57H587.7V111.46a30.4,30.4,0,0,0-30.4-30.4Z"/><path class="cls-3" d="M0,425.57V456a30.4,30.4,0,0,0,30.4,30.4H557.3A30.4,30.4,0,0,0,587.7,456v-30.4Z"/><path class="cls-4" d="M496.5,0H91.2A30.4,30.4,0,0,0,60.8,30.4V395.18H526.9V30.4A30.4,30.4,0,0,0,496.5,0Z"/><path class="cls-5" d="M496.5,0H486.37L91.2,395.17H526.9V30.4A30.4,30.4,0,0,0,496.5,0Z"/><rect class="cls-6" x="91.2" y="30.4" width="20.26" height="20.27"/><rect class="cls-6" x="131.73" y="30.4" width="20.26" height="20.27"/><rect class="cls-6" x="172.26" y="30.4" width="20.26" height="20.27"/><rect class="cls-6" x="91.2" y="70.93" width="405.31" height="20.26"/><path class="cls-7" d="M111.46,121.59h81.06a10.14,10.14,0,0,1,10.13,10.14v60.79a10.13,10.13,0,0,1-10.13,10.13H111.46a10.13,10.13,0,0,1-10.13-10.13V131.73A10.14,10.14,0,0,1,111.46,121.59Z"/><path class="cls-7" d="M253.32,121.59h81.06a10.14,10.14,0,0,1,10.13,10.14v60.79a10.14,10.14,0,0,1-10.13,10.13H253.32a10.13,10.13,0,0,1-10.14-10.13V131.73A10.15,10.15,0,0,1,253.32,121.59Z"/><path class="cls-7" d="M395.18,121.59h81.06a10.14,10.14,0,0,1,10.13,10.14v60.79a10.14,10.14,0,0,1-10.13,10.13H395.18A10.13,10.13,0,0,1,385,192.52V131.73A10.14,10.14,0,0,1,395.18,121.59Z"/><path class="cls-7" d="M111.46,243.18h81.06a10.14,10.14,0,0,1,10.13,10.14v60.79a10.13,10.13,0,0,1-10.13,10.14H111.46a10.14,10.14,0,0,1-10.13-10.14V253.32A10.14,10.14,0,0,1,111.46,243.18Z"/><path class="cls-8" d="M253.32,243.18h81.06a10.14,10.14,0,0,1,10.13,10.14v60.79a10.14,10.14,0,0,1-10.13,10.14H253.32a10.14,10.14,0,0,1-10.14-10.14V253.32A10.15,10.15,0,0,1,253.32,243.18Z"/><path class="cls-7" d="M395.18,243.18h81.06a10.14,10.14,0,0,1,10.13,10.14v60.79a10.14,10.14,0,0,1-10.13,10.14H395.18A10.14,10.14,0,0,1,385,314.11V253.32A10.14,10.14,0,0,1,395.18,243.18Z"/><path class="cls-8" d="M192.52,364.78H111.46a10.14,10.14,0,0,0-10.13,10.13v20.26H202.65V374.91A10.14,10.14,0,0,0,192.52,364.78Z"/><path class="cls-7" d="M334.38,364.78H253.32a10.14,10.14,0,0,0-10.14,10.13v20.26H344.51V374.91A10.14,10.14,0,0,0,334.38,364.78Z"/><path class="cls-7" d="M476.24,364.78H395.18A10.14,10.14,0,0,0,385,374.91v20.26H486.37V374.91A10.14,10.14,0,0,0,476.24,364.78Z"/><rect class="cls-9" x="526.9" y="81.06" width="30.4" height="344.51"/><rect class="cls-5" x="60.8" y="395.17" width="466.1" height="30.4"/></g><path class="cls-10" d="M408.61,598H179.09a17.66,17.66,0,0,1-17.65-17.66h0a17.65,17.65,0,0,1,17.65-17.65H408.61a17.65,17.65,0,0,1,17.65,17.65h0A17.65,17.65,0,0,1,408.61,598Z"/><path class="cls-1" d="M320.33,464.8h-53a8.83,8.83,0,1,1,0-17.66h53a8.83,8.83,0,1,1,0,17.66Z"/></g></g></svg>