<svg xmlns="http://www.w3.org/2000/svg" xmlns:xlink="http://www.w3.org/1999/xlink" height="100px" viewBox="0 0 356.62 344.29"><defs><style>.cls-b-1{fill:none;}.cls-b-2{fill:#e7eced;}.cls-b-3{fill:#afb6bb;}.cls-b-4{fill:#495d72;}.cls-b-5{fill:#4398d1;}.cls-b-6{clip-path:url(#clip-path-2);}.cls-b-7{fill:#28384c;}.cls-b-8{fill:#dd352e;}.cls-b-9{fill:#366db6;}.cls-b-10{fill:#75348b;}.cls-b-11{fill:#57abc1;}.cls-b-12{fill:#25ae88;}.cls-b-13{fill:#f76363;}.cls-b-14{fill:#bf5a45;}.cls-b-15{fill:#f2ecbf;}.cls-b-16{fill:#ebba16;}.cls-b-17{fill:#ed8a19;}.cls-b-18{fill:#c5411e;}.cls-b-19{fill:#f05133;}.cls-b-20{isolation:isolate;font-size:69.65px;font-family:Consolas-Bold, Consolas;font-weight:700;}.cls-b-20,.cls-b-21{fill:#fff;}</style><clipPath id="clip-path-2"><rect class="cls-b-1" x="24.58" y="24.59" width="311.42" height="196.77"/></clipPath></defs><g id="Layer_2" data-name="Layer 2"><g id="Layer_1-2" data-name="Layer 1"><g id="Capa_1" data-name="Capa 1"><path class="cls-b-2" d="M258.27,344.29H98.35A12.33,12.33,0,0,1,86,332h0a12.29,12.29,0,0,1,12.26-12.32H258.13A12.29,12.29,0,0,1,270.39,332h0a12,12,0,0,1-12.12,12.26Z"/><path class="cls-b-3" d="M209,270.53V258.27H147.52v12.26c0,27.17-9.68,49.18-36.91,49.18H245.87C218.78,319.71,209,297.76,209,270.53Z"/><path class="cls-b-2" d="M338.16,270.53H18.46A18.45,18.45,0,0,1,0,252.07H0V215.23H356.62v36.91A18.43,18.43,0,0,1,338.16,270.53Z"/><path class="cls-b-3" d="M196.77,252.07H159.85a6.1,6.1,0,0,1-6.34-5.92,6.19,6.19,0,0,1,5.92-6.34h37.34a6.1,6.1,0,0,1,6.34,5.92,6.19,6.19,0,0,1-5.92,6.34Z"/><path class="cls-b-4" d="M307.45,0h-289A18.49,18.49,0,0,0,0,18.46v202.9H356.62V18.46A18.49,18.49,0,0,0,338.16,0Z"/><rect class="cls-b-5" x="24.58" y="24.59" width="311.42" height="196.77"/><g class="cls-b-6"><g id="code-right"><rect class="cls-b-7" x="169.95" y="24.59" width="166.05" height="196.77"/><path class="cls-b-8" d="M264.4,55.3H202.9a6.13,6.13,0,1,1,0-12.25h61.5a6.13,6.13,0,1,1,0,12.25Z"/><path class="cls-b-9" d="M307.45,55.3H289a6.13,6.13,0,1,1,0-12.25h18.46a6.13,6.13,0,1,1,0,12.25Z"/><path class="cls-b-10" d="M307.45,80H245.94a6.13,6.13,0,0,1,0-12.26h61.51a6.13,6.13,0,0,1,0,12.26Z"/><path class="cls-b-11" d="M221.36,80H202.9a6.13,6.13,0,0,1,0-12.26h18.46a6.13,6.13,0,0,1,0,12.26Z"/><path class="cls-b-12" d="M264.4,104.55H202.9a6.13,6.13,0,0,1,0-12.26h61.5a6.13,6.13,0,0,1,0,12.26Z"/><path class="cls-b-13" d="M307.45,104.55H289a6.13,6.13,0,0,1,0-12.26h18.46a6.13,6.13,0,0,1,0,12.26Z"/><path class="cls-b-14" d="M307.45,129.14H245.94a6.13,6.13,0,1,1,0-12.26h61.51a6.13,6.13,0,0,1,0,12.26Z"/><path class="cls-b-15" d="M221.36,129.14H202.9a6.13,6.13,0,1,1,0-12.26h18.46a6.13,6.13,0,0,1,0,12.26Z"/><path class="cls-b-12" d="M307.45,202.9H245.94a6.13,6.13,0,0,1,0-12.26h61.51a6.13,6.13,0,0,1,0,12.26Z"/><path class="cls-b-8" d="M221.36,202.9H202.9a6.13,6.13,0,0,1,0-12.26h18.46a6.13,6.13,0,0,1,0,12.26Z"/><path class="cls-b-10" d="M264.4,153.72H202.9a6.13,6.13,0,0,1,0-12.26h61.5a6.13,6.13,0,0,1,0,12.26Z"/><path class="cls-b-16" d="M307.45,153.72H289a6.13,6.13,0,0,1,0-12.26h18.46a6.13,6.13,0,0,1,0,12.26Z"/><path class="cls-b-17" d="M307.45,178.31H245.94a6.13,6.13,0,0,1,0-12.26h61.51a6.13,6.13,0,0,1,0,12.26Z"/><path class="cls-b-18" d="M221.36,178.31H202.9a6.13,6.13,0,0,1,0-12.26h18.46a6.13,6.13,0,0,1,0,12.26Z"/></g><g id="code-left"><rect class="cls-b-19" x="24.59" y="24.59" width="145.36" height="196.77"/><text class="cls-b-20" transform="translate(42.49 195.48)">&lt;/&gt;</text><path class="cls-b-21" d="M82.47,47.64,93.4,58.58a7.27,7.27,0,0,1,9.2,9.26l10.52,10.52a7.24,7.24,0,1,1-4.53,9.19,7.66,7.66,0,0,1,.14-5.15l-9.82-9.75V98.49a7.27,7.27,0,1,1-9.75,3.27,6.8,6.8,0,0,1,3.76-3.48v-26a7.26,7.26,0,0,1-4-9.47v-.07L78.22,52"/></g></g></g></g></g></svg>