<?xml version="1.0" encoding="utf-8"?>
<!-- Generator: Adobe Illustrator 24.3.0, SVG Export Plug-In . SVG Version: 6.00 Build 0)  -->
<svg version="1.1" id="Layer_1" xmlns="http://www.w3.org/2000/svg" xmlns:xlink="http://www.w3.org/1999/xlink" x="0px" y="0px"
	 viewBox="0 0 512 494.3" style="enable-background:new 0 0 512 494.3;" xml:space="preserve">
<style type="text/css">
	.st0{fill:#E7ECED;}
	.st1{fill:#AFB6BB;}
	.st2{fill:#495D72;}
	.st3{fill:#28384C;}
	.st4{fill:#F05133;}
	.st5{fill:#DD352E;}
	.st6{fill:#366DB6;}
	.st7{fill:#75348B;}
	.st8{fill:#57ABC1;}
	.st9{fill:#25AE88;}
	.st10{fill:#F76363;}
	.st11{fill:#BF5A45;}
	.st12{fill:#F2ECBF;}
	.st13{fill:#EBBA16;}
	.st14{fill:#ED8A19;}
	.st15{fill:#C5411E;}
	.st16{fill:#FFFFFF;}
	.st17{font-family:'Consolas-Bold';}
	.st18{font-size:100px;}
</style>
<g id="Layer_2_1_">
	<g id="Capa_1">
		<path class="st0" d="M370.8,494.3H141.2c-9.7,0-17.7-7.9-17.7-17.6l0,0c0-9.8,7.9-17.7,17.6-17.7c0,0,0,0,0,0h229.5
			c9.7,0,17.6,7.9,17.6,17.7l0,0C388.4,486.4,380.6,494.3,370.8,494.3C370.8,494.3,370.8,494.3,370.8,494.3z"/>
		<path class="st1" d="M300.1,388.4v-17.6h-88.3v17.6c0,39-13.9,70.6-53,70.6h194.2C314.1,459,300.1,427.5,300.1,388.4z"/>
		<path class="st0" d="M485.5,388.4h-459C11.9,388.4,0,376.6,0,361.9c0,0,0,0,0,0V309h512v53C512,376.6,500.1,388.4,485.5,388.4z"/>
		<path class="st1" d="M282.5,361.9h-53c-4.9,0.2-9-3.7-9.1-8.5s3.7-9,8.5-9.1c0.2,0,0.4,0,0.6,0h53c4.9-0.2,9,3.7,9.1,8.5
			s-3.7,9-8.5,9.1C282.9,361.9,282.7,361.9,282.5,361.9z"/>
		<path class="st2" d="M441.4,0H26.5C11.9,0,0,11.9,0,26.5v291.3h512V26.5C512,11.9,500.1,0,485.5,0H441.4z"/>
		<rect x="244" y="35.3" class="st3" width="238.4" height="282.5"/>
		<rect x="35.3" y="35.3" class="st4" width="208.7" height="282.5"/>
		<path class="st5" d="M379.6,79.4h-88.3c-4.9,0-8.8-4-8.8-8.8c0-4.9,4-8.8,8.8-8.8h88.3c4.9,0,8.8,4,8.8,8.8
			C388.4,75.5,384.5,79.4,379.6,79.4z"/>
		<path class="st6" d="M441.4,79.4h-26.5c-4.9,0-8.8-4-8.8-8.8c0-4.9,4-8.8,8.8-8.8h26.5c4.9,0,8.8,4,8.8,8.8
			C450.2,75.5,446.3,79.4,441.4,79.4z"/>
		<path class="st7" d="M441.4,114.8h-88.3c-4.9,0-8.8-4-8.8-8.8c0-4.9,4-8.8,8.8-8.8h88.3c4.9,0,8.8,4,8.8,8.8
			S446.3,114.8,441.4,114.8z"/>
		<path class="st8" d="M317.8,114.8h-26.5c-4.9,0-8.8-3.9-8.8-8.8c0-4.9,3.9-8.8,8.8-8.8c0,0,0,0,0,0h26.5c4.9,0,8.8,4,8.8,8.8
			S322.7,114.8,317.8,114.8C317.8,114.8,317.8,114.8,317.8,114.8z"/>
		<path class="st9" d="M379.6,150.1h-88.3c-4.9,0-8.8-4-8.8-8.8s4-8.8,8.8-8.8h88.3c4.9,0,8.8,4,8.8,8.8S384.5,150.1,379.6,150.1z"
			/>
		<path class="st10" d="M441.4,150.1h-26.5c-4.9,0-8.8-4-8.8-8.8s4-8.8,8.8-8.8h26.5c4.9,0,8.8,4,8.8,8.8S446.3,150.1,441.4,150.1z"
			/>
		<path class="st11" d="M441.4,185.4h-88.3c-4.9,0-8.8-4-8.8-8.8s4-8.8,8.8-8.8h88.3c4.9,0,8.8,4,8.8,8.8S446.3,185.4,441.4,185.4z"
			/>
		<path class="st12" d="M317.8,185.4h-26.5c-4.9,0-8.8-4-8.8-8.8s4-8.8,8.8-8.8h26.5c4.9,0,8.8,4,8.8,8.8S322.7,185.4,317.8,185.4
			L317.8,185.4z"/>
		<path class="st9" d="M441.4,291.3h-88.3c-4.9,0-8.8-4-8.8-8.8c0-4.9,4-8.8,8.8-8.8h88.3c4.9,0,8.8,4,8.8,8.8
			C450.2,287.4,446.3,291.3,441.4,291.3z"/>
		<path class="st5" d="M317.8,291.3h-26.5c-4.9,0-8.8-4-8.8-8.8c0-4.9,4-8.8,8.8-8.8h26.5c4.9,0,8.8,4,8.8,8.8
			C326.6,287.4,322.7,291.3,317.8,291.3L317.8,291.3z"/>
		<path class="st7" d="M379.6,220.7h-88.3c-4.9,0-8.8-4-8.8-8.8s4-8.8,8.8-8.8h88.3c4.9,0,8.8,4,8.8,8.8S384.5,220.7,379.6,220.7z"
			/>
		<path class="st13" d="M441.4,220.7h-26.5c-4.9,0-8.8-4-8.8-8.8s4-8.8,8.8-8.8h26.5c4.9,0,8.8,4,8.8,8.8S446.3,220.7,441.4,220.7z"
			/>
		<path class="st14" d="M441.4,256h-88.3c-4.9,0-8.8-4-8.8-8.8s4-8.8,8.8-8.8h88.3c4.9,0,8.8,4,8.8,8.8S446.3,256,441.4,256z"/>
		<path class="st15" d="M317.8,256h-26.5c-4.9,0-8.8-4-8.8-8.8s4-8.8,8.8-8.8h26.5c4.9,0,8.8,4,8.8,8.8S322.7,256,317.8,256
			L317.8,256z"/>
		<text transform="matrix(1 0 0 1 61 280.65)" class="st16 st17 st18">&lt;/&gt;</text>
		<path class="st16" d="M118.4,68.4l15.7,15.7c5.4-1.9,11.4,1.1,13.2,6.5c0.8,2.2,0.7,4.6,0,6.8l15.1,15.1c5.4-1.9,11.4,1,13.2,6.5
			c1.9,5.4-1,11.4-6.5,13.2s-11.4-1-13.2-6.5c-0.8-2.4-0.7-5,0.2-7.4L142,104.3v37.1c5.2,2.6,7.3,8.8,4.7,14s-8.8,7.3-14,4.7
			c-5.2-2.6-7.3-8.8-4.7-14c1.1-2.3,3-4.1,5.4-5v-37.4c-5.3-2.2-7.9-8.3-5.7-13.6c0,0,0,0,0-0.1l-15.4-15.4"/>
	</g>
</g>
</svg>
