<svg xmlns="http://www.w3.org/2000/svg" viewBox="0 0 137.42 132.79"><defs><style>.cls-1{font-size:104.93px;fill:#584da0;font-family:Rockwell-Condensed, Rockwell Condensed;}.cls-2{fill:#2ea0bf;}</style></defs><g id="Layer_2" data-name="Layer 2"><g id="Layer_1-2" data-name="Layer 1"><text class="cls-1" transform="translate(0 102.64)">{</text><text class="cls-1" transform="translate(102.37 102.64)">}</text><path class="cls-2" d="M58.76,28.31c1.61-2.26,3.49-2.57,5.6-2.51,2.9.09,5.81.11,8.72,0,2.11-.07,4,.26,5.5,2.39,2-2.51,3.93-4.82,5.75-7.22A37.25,37.25,0,0,0,91.5,6.62c.53-2.41.21-3-2.2-3.47-1.82-.33-3.7-.3-5.6-.57,3.44-1.34,6.89-3,10.74-2.33,1,.17,2,1.37,2.72,2.34A55.55,55.55,0,0,1,104,15.5a12.47,12.47,0,0,1-1.07.88Q91.35,23.93,79.81,31.49A6,6,0,0,0,78,33.42q-3,5.14-5.93,10.39a3.29,3.29,0,0,0-.2,1.8c.63,6.27,1.32,12.52,1.93,18.79.75,7.64,1.42,15.29,2.17,22.94s1.57,15.55,2.36,23.33c.17,1.72.38,3.43.49,5.16a2.73,2.73,0,0,1-.37,1.57c-3.49,5.06-7,10.09-10.74,15.39-1.75-2.47-3.37-4.74-5-7-1.79-2.55-3.64-5.06-5.29-7.69a5.57,5.57,0,0,1-.7-3.09c1-8.37,2.06-16.73,3.14-25.08.91-7,1.87-14,2.77-21,.75-5.83,1.46-11.67,2.18-17.5.17-1.37.32-2.74.51-4.11a8.26,8.26,0,0,0,.15-2.61,1.25,1.25,0,0,0-.3-.72L59.54,33c-.47-.93-2.54-2.15-6-4.32-6.75-4.2-13.33-8.65-20.11-13.08A54.47,54.47,0,0,1,41,1.61,4.08,4.08,0,0,1,45.45.14C48.77.83,52,1.83,55.32,2.63c-2.26.28-4.59.07-6.84.4-2.69.4-3.12,1.13-2.51,3.81a31.09,31.09,0,0,0,4.88,10.9C53.3,21.25,56,24.6,58.76,28.31Z"/></g></g></svg>