<svg xmlns="http://www.w3.org/2000/svg" xmlns:xlink="http://www.w3.org/1999/xlink" height="100px" viewBox="0 0 356.62 362.92"><defs><style>.cls-a-1,.cls-a-12{fill:none;}.cls-a-2{fill:#e7eced;}.cls-a-3{fill:#afb6bb;}.cls-a-4{fill:#495d72;}.cls-a-5{fill:#4398d1;}.cls-a-6{clip-path:url(#clip-path-1);}.cls-a-7{fill:#fff;}.cls-a-8{fill:#d5d6c8;}.cls-a-9{fill:#ff605c;}.cls-a-10{fill:#00ca4e;}.cls-a-11{fill:#ffbd44;}.cls-a-12{stroke:#606060;stroke-miterlimit:10;stroke-width:2px;}.cls-a-13{fill:#75c690;}</style><clipPath id="clip-path-1"><path class="cls-a-1" d="M299.64,0H57a18.34,18.34,0,0,0-18.2,18.46V240H317.84V18.46A18.34,18.34,0,0,0,299.64,0Z"/></clipPath></defs><g id="Layer_2" data-name="Layer 2"><g id="Layer_1-2" data-name="Layer 1"><path class="cls-a-2" d="M258.27,362.92H98.35A12.34,12.34,0,0,1,86,350.66h0a12.29,12.29,0,0,1,12.26-12.33H258.13a12.29,12.29,0,0,1,12.26,12.33h0a12,12,0,0,1-12.12,12.26Z"/><path class="cls-a-3" d="M209,289.15V276.89H147.52v12.26c0,27.17-9.68,49.18-36.91,49.18H245.87C218.78,338.33,209,316.39,209,289.15Z"/><path class="cls-a-2" d="M338.16,289.15H18.46A18.45,18.45,0,0,1,0,270.7H0V233.85H356.62v36.92A18.43,18.43,0,0,1,338.16,289.15Z"/><path class="cls-a-3" d="M196.77,270.7H159.85a6.11,6.11,0,0,1-6.34-5.93,6.19,6.19,0,0,1,5.92-6.33h37.34a6.1,6.1,0,0,1,6.34,5.92,6.19,6.19,0,0,1-5.92,6.34Z"/><path class="cls-a-4" d="M307.45,18.62h-289A18.49,18.49,0,0,0,0,37.08V240H356.62V37.08a18.49,18.49,0,0,0-18.46-18.46Z"/><rect class="cls-a-5" x="22.6" y="43.21" width="311.42" height="196.77"/><g class="cls-a-6"><g id="website"><path class="cls-a-7" d="M299.64,0H57a18.34,18.34,0,0,0-18.2,18.46V240H317.84V18.46A18.34,18.34,0,0,0,299.64,0Z"/><rect class="cls-a-8" x="113.84" y="13.77" width="185.62" height="8" rx="4"/><rect class="cls-a-8" x="190.57" y="62.53" width="102.13" height="4.91" rx="2.46"/><rect class="cls-a-8" x="190.57" y="75.32" width="84.32" height="4.91" rx="2.46"/><circle class="cls-a-9" cx="59.09" cy="18.04" r="7.22"/><circle class="cls-a-10" cx="94.91" cy="18.04" r="7.22"/><circle class="cls-a-11" cx="76.91" cy="18.04" r="7.22"/><rect class="cls-a-11" x="72.51" y="60.84" width="89.45" height="61.7" rx="2.77"/><path class="cls-a-12" d="M156.84,102.88V114.4a3.27,3.27,0,0,1-3.37,3.16H81a3.27,3.27,0,0,1-3.38-3.16V100.29L96.91,84.92a4.48,4.48,0,0,1,5.71.15l14.81,13.29a6.31,6.31,0,0,0,7.38.67L138,91.09a3.84,3.84,0,0,1,4.31.27Z"/><path class="cls-a-12" d="M156.84,68.85v34L142.32,91.36a3.84,3.84,0,0,0-4.31-.27L124.81,99a6.31,6.31,0,0,1-7.38-.67L102.62,85.07a4.48,4.48,0,0,0-5.71-.15L77.62,100.29V68.85A3.28,3.28,0,0,1,81,65.69h72.47A3.27,3.27,0,0,1,156.84,68.85Z"/><ellipse class="cls-a-12" cx="133.7" cy="78.12" rx="6.44" ry="6.03"/><rect class="cls-a-8" x="64.95" y="139.86" width="102.13" height="4.91" rx="2.46"/><rect class="cls-a-8" x="64.95" y="152.67" width="103.99" height="4.91" rx="2.46"/><rect class="cls-a-8" x="64.95" y="165.48" width="103.99" height="4.91" rx="2.46"/><rect class="cls-a-8" x="65.6" y="178.16" width="103.99" height="4.91" rx="2.46"/><rect class="cls-a-8" x="64.95" y="190.84" width="103.99" height="4.91" rx="2.46"/><rect class="cls-a-8" x="65.59" y="203.52" width="45.19" height="4.91" rx="2.46"/><rect class="cls-a-8" x="64.95" y="139.86" width="103.99" height="4.91" rx="2.46"/><rect class="cls-a-13" x="190.57" y="95.47" width="102.13" height="114.64" rx="6.45"/></g></g></g></g></svg>